<svg xmlns="http://www.w3.org/2000/svg" xmlns:xlink="http://www.w3.org/1999/xlink" width="943.151" height="151.333" viewBox="0 0 943.151 151.333">
  <defs>
    <filter id="Path_1" x="0" y="0" width="943.151" height="151.333" filterUnits="userSpaceOnUse">
      <feOffset dy="3" input="SourceAlpha"/>
      <feGaussianBlur stdDeviation="3" result="blur"/>
      <feFlood flood-opacity="0.161"/>
      <feComposite operator="in" in2="blur"/>
      <feComposite in="SourceGraphic"/>
    </filter>
    <filter id="Ellipse_3" x="248.091" y="34" width="78" height="78" filterUnits="userSpaceOnUse">
      <feOffset dy="3" input="SourceAlpha"/>
      <feGaussianBlur stdDeviation="3" result="blur-2"/>
      <feFlood flood-opacity="0.161"/>
      <feComposite operator="in" in2="blur-2"/>
      <feComposite in="SourceGraphic"/>
    </filter>
    <filter id="Ellipse_3-2" x="328.091" y="34" width="78" height="78" filterUnits="userSpaceOnUse">
      <feOffset dy="3" input="SourceAlpha"/>
      <feGaussianBlur stdDeviation="3" result="blur-3"/>
      <feFlood flood-opacity="0.161"/>
      <feComposite operator="in" in2="blur-3"/>
      <feComposite in="SourceGraphic"/>
    </filter>
    <filter id="Ellipse_3-3" x="408.091" y="34" width="78" height="78" filterUnits="userSpaceOnUse">
      <feOffset dy="3" input="SourceAlpha"/>
      <feGaussianBlur stdDeviation="3" result="blur-4"/>
      <feFlood flood-opacity="0.161"/>
      <feComposite operator="in" in2="blur-4"/>
      <feComposite in="SourceGraphic"/>
    </filter>
    <radialGradient id="radial-gradient" cx="0.5" cy="0.5" r="0.5" gradientUnits="objectBoundingBox">
      <stop offset="0" stop-color="#e9ffff"/>
      <stop offset="1" stop-color="aqua"/>
    </radialGradient>
    <filter id="Path_2" x="77.091" y="14" width="121" height="121" filterUnits="userSpaceOnUse">
      <feOffset dy="3" input="SourceAlpha"/>
      <feGaussianBlur stdDeviation="3" result="blur-5"/>
      <feFlood flood-opacity="0.161"/>
      <feComposite operator="in" in2="blur-5"/>
      <feComposite in="SourceGraphic"/>
    </filter>
  </defs>
  <g id="Group_7" data-name="Group 7" transform="translate(-971.909 6)">
    <g transform="matrix(1, 0, 0, 1, 971.91, -6)" filter="url(#Path_1)">
      <path id="Path_1-2" data-name="Path 1" d="M2016.061,0H1090.909V133.333h509.577L1710.72,89.11h305.341Z" transform="translate(-1081.91 6)" fill="#d80000"/>
    </g>
    <g transform="matrix(1, 0, 0, 1, 971.91, -6)" filter="url(#Ellipse_3)">
      <g id="Ellipse_3-4" data-name="Ellipse 3" transform="translate(257.09 40)" fill="red" stroke="#707070" stroke-width="10">
        <circle cx="30" cy="30" r="30" stroke="none"/>
        <circle cx="30" cy="30" r="25" fill="none"/>
      </g>
    </g>
    <g transform="matrix(1, 0, 0, 1, 971.91, -6)" filter="url(#Ellipse_3-2)">
      <g id="Ellipse_3-5" data-name="Ellipse 3" transform="translate(337.09 40)" fill="#ff0" stroke="#707070" stroke-width="10">
        <circle cx="30" cy="30" r="30" stroke="none"/>
        <circle cx="30" cy="30" r="25" fill="none"/>
      </g>
    </g>
    <g transform="matrix(1, 0, 0, 1, 971.91, -6)" filter="url(#Ellipse_3-3)">
      <g id="Ellipse_3-6" data-name="Ellipse 3" transform="translate(417.09 40)" fill="#28ff00" stroke="#707070" stroke-width="10">
        <circle cx="30" cy="30" r="30" stroke="none"/>
        <circle cx="30" cy="30" r="25" fill="none"/>
      </g>
    </g>
    <g transform="matrix(1, 0, 0, 1, 971.91, -6)" filter="url(#Path_2)">
      <g id="Path_2-2" data-name="Path 2" transform="translate(86.09 20)" fill="url(#radial-gradient)">
        <path d="M 51.5 98 C 45.22034454345703 98 39.13116455078125 96.77123260498047 33.40163803100586 94.34785461425781 C 27.86505508422852 92.00607299804688 22.89163589477539 88.65256500244141 18.61954498291016 84.38047027587891 C 14.34743595123291 80.10838317871094 10.99392700195313 75.13496398925781 8.652145385742188 69.59836578369141 C 6.228763580322266 63.86883544921875 5 57.7796745300293 5 51.5 C 5 45.22034454345703 6.228763580322266 39.13116455078125 8.652145385742188 33.40163803100586 C 10.99392700195313 27.86505508422852 14.34743595123291 22.89163589477539 18.61954498291016 18.61954498291016 C 22.89163589477539 14.34743595123291 27.86505508422852 10.99392700195313 33.40163803100586 8.652145385742188 C 39.13116455078125 6.228763580322266 45.22034454345703 5 51.5 5 C 57.7796745300293 5 63.86883544921875 6.228763580322266 69.59836578369141 8.652145385742188 C 75.13496398925781 10.99392700195313 80.10838317871094 14.34743595123291 84.38047027587891 18.61954498291016 C 88.65256500244141 22.89163589477539 92.00607299804688 27.86505508422852 94.34785461425781 33.40163803100586 C 96.77123260498047 39.13116455078125 98 45.22034454345703 98 51.5 C 98 57.7796745300293 96.77123260498047 63.86883544921875 94.34785461425781 69.59836578369141 C 92.00607299804688 75.13496398925781 88.65256500244141 80.10838317871094 84.38047027587891 84.38047027587891 C 80.10838317871094 88.65256500244141 75.13496398925781 92.00607299804688 69.59836578369141 94.34785461425781 C 63.86883544921875 96.77123260498047 57.7796745300293 98 51.5 98 Z" stroke="none"/>
        <path d="M 51.5 10 C 28.6168212890625 10 10 28.6168212890625 10 51.5 C 10 74.3831787109375 28.6168212890625 93 51.5 93 C 74.3831787109375 93 93 74.3831787109375 93 51.5 C 93 28.6168212890625 74.3831787109375 10 51.5 10 M 51.5 0 C 79.94265747070313 0 103 23.05734252929688 103 51.5 C 103 79.94265747070313 79.94265747070313 103 51.5 103 C 23.05734252929688 103 0 79.94265747070313 0 51.5 C 0 23.05734252929688 23.05734252929688 0 51.5 0 Z" stroke="none" fill="#707070"/>
      </g>
    </g>
  </g>
</svg>
